<svg width="46" height="48" viewBox="0 0 46 48" fill="none" xmlns="http://www.w3.org/2000/svg">
<path d="M44.6915 19.7249C33.0227 19.4823 27.7855 15.2083 27.7855 14.0895C27.7855 12.9707 33.0319 8.74702 44.6915 8.46559C44.8361 8.46295 44.9788 8.43153 45.1111 8.37317C45.2435 8.3148 45.3628 8.23066 45.4623 8.12566C45.5618 8.02065 45.6393 7.89689 45.6904 7.76158C45.7416 7.62628 45.7652 7.48215 45.76 7.33761V1.12111C45.757 0.970865 45.7245 0.822682 45.6642 0.685022C45.604 0.547361 45.5172 0.422921 45.4088 0.318809C45.3005 0.214698 45.1727 0.132955 45.0327 0.0782501C44.8927 0.0235455 44.7434 -0.00304895 44.5931 -1.40883e-05C40.3192 0.194466 25.6027 1.45744 23.0745 10.2502C23.0616 10.2917 23.0358 10.328 23.0008 10.3538C22.9658 10.3796 22.9235 10.3935 22.88 10.3935C22.8365 10.3935 22.7942 10.3796 22.7592 10.3538C22.7242 10.328 22.6984 10.2917 22.6855 10.2502C20.1596 1.45973 5.3928 0.196754 1.16687 -1.40883e-05C1.01551 -0.00750425 0.864224 0.0160209 0.722292 0.0691171C0.58036 0.122213 0.450778 0.20376 0.341502 0.30875C0.232227 0.41374 0.145565 0.539957 0.0868358 0.679653C0.0281071 0.819349 -0.00144831 0.969575 -1.58522e-05 1.12111V7.38794C0.00879072 7.67314 0.122813 7.945 0.32009 8.15114C0.517368 8.35729 0.783946 8.48315 1.06848 8.50449C12.7373 8.74702 17.9745 12.973 17.9745 14.0895C17.9745 15.206 12.7281 19.7249 1.06848 19.7249C-1.58284e-05 19.7249 -1.58522e-05 20.7933 -1.58522e-05 20.7933V27.1586C-1.58522e-05 28.179 1.06848 28.2271 1.06848 28.2271C12.7373 28.4696 17.9745 32.7436 17.9745 33.8624C17.9745 34.9812 12.7281 39.2049 1.06848 39.4955C0.924664 39.4981 0.782799 39.5293 0.651079 39.5871C0.519358 39.6449 0.400391 39.7282 0.301046 39.8322C0.201701 39.9362 0.123948 40.0589 0.0722741 40.1931C0.0206005 40.3274 -0.003969 40.4705 -1.58522e-05 40.6143V46.8811C0.00718696 47.1838 0.13404 47.4712 0.352755 47.6805C0.57147 47.8898 0.864216 48.0038 1.16687 47.9977C5.44085 47.8032 20.1573 46.5402 22.6855 37.7474C22.6984 37.7059 22.7242 37.6696 22.7592 37.6439C22.7942 37.6181 22.8365 37.6042 22.88 37.6042C22.9235 37.6042 22.9658 37.6181 23.0008 37.6439C23.0358 37.6696 23.0616 37.7059 23.0745 37.7474C25.5913 46.5402 40.3672 47.8147 44.5931 47.9977C44.7441 48.0052 44.895 47.9818 45.0366 47.929C45.1783 47.8761 45.3076 47.795 45.4168 47.6905C45.526 47.586 45.6128 47.4603 45.6718 47.3212C45.7308 47.182 45.7608 47.0323 45.76 46.8811V40.5663C45.7518 40.2807 45.638 40.0083 45.4407 39.8016C45.2433 39.595 44.9764 39.4688 44.6915 39.4474C33.0227 39.2049 27.7855 34.979 27.7855 33.8624C27.7855 32.7459 33.0319 28.4696 44.6915 28.2271C44.8341 28.2358 44.9769 28.2141 45.1105 28.1634C45.2441 28.1128 45.3654 28.0344 45.4664 27.9334C45.5674 27.8324 45.6458 27.7111 45.6964 27.5775C45.747 27.444 45.7687 27.3012 45.76 27.1586V20.7933C45.76 19.7249 44.6915 19.7249 44.6915 19.7249ZM26.9115 25.4586C25.8544 29.2864 22.9761 29.6845 21.2281 29.0576C19.432 28.4261 17.5375 26.3852 19.1872 22.6512C20.0131 20.7567 22.7336 17.9883 24.9689 18.8142C27.3988 19.6768 27.4949 23.4657 26.9115 25.4586Z" fill="#ffffff"/>
</svg>